<svg width="181" height="215" viewBox="0 0 181 215" fill="none" xmlns="http://www.w3.org/2000/svg">
<g filter="url(#filter0_d)">
<path d="M44.6988 186.948C44.2739 186.948 43.9296 186.823 43.6659 186.574C43.4168 186.31 43.2922 185.959 43.2922 185.519V172.662C43.2922 172.237 43.4095 171.907 43.6439 171.673C43.893 171.438 44.23 171.321 44.6549 171.321H50.0616C51.7173 171.321 53.0067 171.739 53.9298 172.574C54.8528 173.394 55.3144 174.552 55.3144 176.046C55.3144 177.541 54.8528 178.706 53.9298 179.541C53.0067 180.376 51.7173 180.794 50.0616 180.794H46.1274V185.519C46.1274 185.959 45.9956 186.31 45.7318 186.574C45.4827 186.823 45.1384 186.948 44.6988 186.948ZM49.7099 178.618C51.6587 178.618 52.633 177.768 52.633 176.068C52.633 174.369 51.6587 173.519 49.7099 173.519H46.1274V178.618H49.7099ZM62.0499 175.805C63.5444 175.805 64.6507 176.178 65.3686 176.926C66.1012 177.658 66.4675 178.779 66.4675 180.288V185.651C66.4675 186.047 66.3503 186.362 66.1159 186.596C65.8815 186.816 65.5591 186.926 65.1488 186.926C64.7679 186.926 64.4529 186.809 64.2038 186.574C63.9693 186.34 63.8521 186.032 63.8521 185.651V185.167C63.603 185.739 63.2074 186.186 62.6653 186.508C62.1378 186.831 61.5224 186.992 60.8191 186.992C60.1011 186.992 59.4491 186.845 58.863 186.552C58.2769 186.259 57.8154 185.856 57.4784 185.343C57.1414 184.831 56.9729 184.259 56.9729 183.629C56.9729 182.838 57.1707 182.215 57.5663 181.761C57.9766 181.307 58.6359 180.977 59.5444 180.772C60.4528 180.567 61.7056 180.464 63.3027 180.464H63.8521V179.959C63.8521 179.241 63.6983 178.721 63.3906 178.398C63.0829 178.061 62.5847 177.893 61.896 177.893C61.4711 177.893 61.0389 177.959 60.5993 178.09C60.1598 178.208 59.6396 178.384 59.0389 178.618C58.6579 178.808 58.3795 178.904 58.2037 178.904C57.9399 178.904 57.7202 178.808 57.5443 178.618C57.3832 178.427 57.3026 178.178 57.3026 177.871C57.3026 177.622 57.3612 177.409 57.4784 177.233C57.6103 177.043 57.8227 176.867 58.1158 176.706C58.6286 176.427 59.2367 176.208 59.94 176.046C60.6579 175.885 61.3612 175.805 62.0499 175.805ZM61.3686 185.014C62.1012 185.014 62.6946 184.772 63.1488 184.288C63.6177 183.79 63.8521 183.153 63.8521 182.376V181.915H63.4565C62.4748 181.915 61.7129 181.959 61.1708 182.047C60.6286 182.134 60.2403 182.288 60.0059 182.508C59.7715 182.728 59.6543 183.028 59.6543 183.409C59.6543 183.878 59.8154 184.266 60.1378 184.574C60.4748 184.867 60.885 185.014 61.3686 185.014ZM75.3696 175.849C75.7506 175.819 76.051 175.9 76.2707 176.09C76.4905 176.281 76.6004 176.567 76.6004 176.948C76.6004 177.343 76.5052 177.636 76.3147 177.827C76.1242 178.017 75.7799 178.142 75.2817 178.2L74.6224 178.266C73.7579 178.354 73.1205 178.647 72.7102 179.145C72.3146 179.644 72.1168 180.266 72.1168 181.014V185.629C72.1168 186.054 71.985 186.384 71.7212 186.618C71.4575 186.838 71.1278 186.948 70.7322 186.948C70.3366 186.948 70.0069 186.838 69.7432 186.618C69.4941 186.384 69.3695 186.054 69.3695 185.629V177.123C69.3695 176.713 69.4941 176.398 69.7432 176.178C70.0069 175.959 70.3293 175.849 70.7102 175.849C71.0912 175.849 71.3989 175.959 71.6333 176.178C71.8677 176.383 71.985 176.684 71.985 177.079V177.959C72.2633 177.314 72.6736 176.816 73.2157 176.464C73.7725 176.112 74.3879 175.915 75.0619 175.871L75.3696 175.849ZM86.1839 183.871C86.433 183.871 86.6308 183.966 86.7774 184.157C86.9385 184.347 87.0191 184.603 87.0191 184.926C87.0191 185.38 86.7481 185.761 86.2059 186.069C85.7077 186.347 85.1436 186.574 84.5136 186.75C83.8835 186.911 83.2828 186.992 82.7114 186.992C80.9824 186.992 79.6124 186.494 78.6014 185.497C77.5904 184.501 77.0849 183.138 77.0849 181.409C77.0849 180.31 77.3047 179.336 77.7443 178.486C78.1838 177.636 78.7992 176.977 79.5904 176.508C80.3963 176.039 81.3047 175.805 82.3158 175.805C83.2828 175.805 84.1253 176.017 84.8433 176.442C85.5612 176.867 86.118 177.468 86.5136 178.244C86.9092 179.021 87.107 179.937 87.107 180.992C87.107 181.622 86.8286 181.937 86.2719 181.937H79.7882C79.8762 182.948 80.1619 183.695 80.6454 184.178C81.1289 184.647 81.8322 184.882 82.7553 184.882C83.2242 184.882 83.6345 184.823 83.9861 184.706C84.3524 184.589 84.7627 184.428 85.2169 184.222C85.6565 183.988 85.9788 183.871 86.1839 183.871ZM82.3817 177.739C81.6344 177.739 81.0337 177.973 80.5795 178.442C80.1399 178.911 79.8762 179.585 79.7882 180.464H84.7553C84.726 179.57 84.5063 178.896 84.096 178.442C83.6857 177.973 83.1143 177.739 82.3817 177.739ZM95.7057 175.805C96.9951 175.805 97.9548 176.171 98.5849 176.904C99.2149 177.636 99.5299 178.743 99.5299 180.222V185.629C99.5299 186.039 99.4054 186.362 99.1563 186.596C98.9219 186.831 98.5922 186.948 98.1673 186.948C97.7424 186.948 97.4054 186.831 97.1563 186.596C96.9072 186.362 96.7826 186.039 96.7826 185.629V180.376C96.7826 179.541 96.6215 178.933 96.2991 178.552C95.9914 178.171 95.5006 177.981 94.8266 177.981C94.0353 177.981 93.398 178.23 92.9144 178.728C92.4456 179.226 92.2111 179.893 92.2111 180.728V185.629C92.2111 186.039 92.0866 186.362 91.8375 186.596C91.5884 186.831 91.2514 186.948 90.8265 186.948C90.4016 186.948 90.0646 186.831 89.8155 186.596C89.5811 186.362 89.4638 186.039 89.4638 185.629V177.123C89.4638 176.742 89.5884 176.435 89.8375 176.2C90.0866 175.966 90.4236 175.849 90.8485 175.849C91.2294 175.849 91.5371 175.966 91.7716 176.2C92.0207 176.42 92.1452 176.713 92.1452 177.079V177.673C92.5115 177.072 93.0024 176.611 93.6178 176.288C94.2331 175.966 94.9291 175.805 95.7057 175.805ZM108.014 184.904C108.746 184.948 109.112 185.277 109.112 185.893C109.112 186.244 108.966 186.516 108.673 186.706C108.395 186.882 107.992 186.955 107.464 186.926L106.871 186.882C104.409 186.706 103.178 185.387 103.178 182.926V178.134H102.079C101.684 178.134 101.376 178.047 101.156 177.871C100.951 177.695 100.849 177.438 100.849 177.101C100.849 176.764 100.951 176.508 101.156 176.332C101.376 176.156 101.684 176.068 102.079 176.068H103.178V174.046C103.178 173.651 103.303 173.336 103.552 173.101C103.801 172.867 104.138 172.75 104.563 172.75C104.973 172.75 105.303 172.867 105.552 173.101C105.801 173.336 105.926 173.651 105.926 174.046V176.068H107.794C108.189 176.068 108.49 176.156 108.695 176.332C108.915 176.508 109.025 176.764 109.025 177.101C109.025 177.438 108.915 177.695 108.695 177.871C108.49 178.047 108.189 178.134 107.794 178.134H105.926V183.124C105.926 184.208 106.424 184.787 107.42 184.86L108.014 184.904ZM124.939 185.124C125.027 185.314 125.071 185.505 125.071 185.695C125.071 186.032 124.932 186.318 124.654 186.552C124.39 186.787 124.082 186.904 123.731 186.904C123.496 186.904 123.276 186.845 123.071 186.728C122.866 186.596 122.705 186.398 122.588 186.135L121.269 183.189H113.533L112.214 186.135C112.097 186.398 111.935 186.596 111.73 186.728C111.525 186.845 111.298 186.904 111.049 186.904C110.712 186.904 110.404 186.787 110.126 186.552C109.848 186.318 109.708 186.032 109.708 185.695C109.708 185.505 109.752 185.314 109.84 185.124L115.906 172.09C116.038 171.797 116.236 171.578 116.5 171.431C116.778 171.27 117.071 171.189 117.379 171.189C117.686 171.189 117.972 171.27 118.236 171.431C118.514 171.578 118.719 171.797 118.851 172.09L124.939 185.124ZM114.5 180.992H120.302L117.401 174.464L114.5 180.992ZM128.439 186.948C128.043 186.948 127.714 186.838 127.45 186.618C127.201 186.384 127.076 186.054 127.076 185.629V172.508C127.076 172.083 127.201 171.761 127.45 171.541C127.714 171.321 128.043 171.211 128.439 171.211C128.834 171.211 129.164 171.321 129.428 171.541C129.692 171.761 129.823 172.083 129.823 172.508V185.629C129.823 186.054 129.692 186.384 129.428 186.618C129.164 186.838 128.834 186.948 128.439 186.948ZM134.129 186.948C133.733 186.948 133.403 186.838 133.14 186.618C132.891 186.384 132.766 186.054 132.766 185.629V172.508C132.766 172.083 132.891 171.761 133.14 171.541C133.403 171.321 133.733 171.211 134.129 171.211C134.524 171.211 134.854 171.321 135.118 171.541C135.381 171.761 135.513 172.083 135.513 172.508V185.629C135.513 186.054 135.381 186.384 135.118 186.618C134.854 186.838 134.524 186.948 134.129 186.948Z" fill="white"/>
</g>
<g filter="url(#filter1_d)">
<path d="M7.92192 196.87C9.13964 196.87 10.0978 197.228 10.7962 197.944C11.5035 198.651 11.8573 199.677 11.8573 201.02V206.352H10.8768V203.585H4.96705V206.352H4V201.02C4 199.677 4.34921 198.651 5.04764 197.944C5.75497 197.228 6.71311 196.87 7.92192 196.87ZM10.8768 202.726V200.926C10.8768 199.878 10.6171 199.091 10.0978 198.562C9.57847 198.025 8.85319 197.756 7.92192 197.756C6.99064 197.756 6.26536 198.025 5.74606 198.562C5.22676 199.091 4.96705 199.878 4.96705 200.926V202.726H10.8768ZM16.6896 206.419C16.0538 206.419 15.5613 206.24 15.2121 205.882C14.8718 205.524 14.7017 205.027 14.7017 204.391V196.386H15.6554V204.311C15.6554 204.732 15.7539 205.054 15.9508 205.278C16.1478 205.493 16.4433 205.6 16.8373 205.6C17.088 205.6 17.3029 205.56 17.482 205.479L17.5492 206.272C17.2716 206.371 16.985 206.419 16.6896 206.419ZM20.9015 206.419C20.2658 206.419 19.7732 206.24 19.424 205.882C19.0839 205.524 18.9136 205.027 18.9136 204.391V196.386H19.8673V204.311C19.8673 204.732 19.9658 205.054 20.1627 205.278C20.3598 205.493 20.6553 205.6 21.0492 205.6C21.3 205.6 21.5149 205.56 21.6939 205.479L21.7611 206.272C21.4835 206.371 21.197 206.419 20.9015 206.419ZM26.708 199.287H27.6616V206.352H26.708V199.287ZM27.1915 197.743C26.9945 197.743 26.8289 197.676 26.6946 197.541C26.5603 197.407 26.4931 197.246 26.4931 197.058C26.4931 196.878 26.5603 196.722 26.6946 196.588C26.8289 196.453 26.9945 196.386 27.1915 196.386C27.3885 196.386 27.5542 196.453 27.6885 196.588C27.8228 196.714 27.89 196.865 27.89 197.044C27.89 197.241 27.8228 197.407 27.6885 197.541C27.5542 197.676 27.3885 197.743 27.1915 197.743ZM33.9818 199.234C34.8682 199.234 35.571 199.494 36.0905 200.013C36.6187 200.523 36.8829 201.27 36.8829 202.256V206.352H35.9293V202.35C35.9293 201.616 35.7456 201.055 35.3786 200.671C35.0114 200.286 34.4876 200.093 33.8071 200.093C33.046 200.093 32.4416 200.322 31.9939 200.778C31.5551 201.226 31.3358 201.848 31.3358 202.645V206.352H30.3822V199.287H31.2955V200.59C31.5551 200.16 31.9133 199.83 32.37 199.596C32.8356 199.355 33.3728 199.234 33.9818 199.234ZM46.009 206.419C45.3286 206.419 44.7151 206.267 44.169 205.963C43.6228 205.649 43.193 205.219 42.8796 204.673C42.5661 204.128 42.4095 203.51 42.4095 202.82C42.4095 202.13 42.5661 201.512 42.8796 200.966C43.193 200.421 43.6228 199.994 44.169 199.69C44.7151 199.386 45.3286 199.234 46.009 199.234C46.6895 199.234 47.3029 199.386 47.8491 199.69C48.3953 199.994 48.8207 200.421 49.1251 200.966C49.4385 201.512 49.5952 202.13 49.5952 202.82C49.5952 203.51 49.4385 204.128 49.1251 204.673C48.8207 205.219 48.3953 205.649 47.8491 205.963C47.3029 206.267 46.6895 206.419 46.009 206.419ZM46.009 205.573C46.5105 205.573 46.9581 205.461 47.3522 205.237C47.7551 205.004 48.0685 204.678 48.2923 204.257C48.5162 203.836 48.6281 203.357 48.6281 202.82C48.6281 202.283 48.5162 201.804 48.2923 201.383C48.0685 200.961 47.7551 200.639 47.3522 200.416C46.9581 200.182 46.5105 200.066 46.009 200.066C45.5076 200.066 45.0554 200.182 44.6525 200.416C44.2585 200.639 43.9451 200.961 43.7123 201.383C43.4885 201.804 43.3765 202.283 43.3765 202.82C43.3765 203.357 43.4885 203.836 43.7123 204.257C43.9451 204.678 44.2585 205.004 44.6525 205.237C45.0554 205.461 45.5076 205.573 46.009 205.573ZM55.2088 199.234C56.0953 199.234 56.7982 199.494 57.3175 200.013C57.8458 200.523 58.1099 201.27 58.1099 202.256V206.352H57.1563V202.35C57.1563 201.616 56.9728 201.055 56.6056 200.671C56.2385 200.286 55.7147 200.093 55.0342 200.093C54.2731 200.093 53.6687 200.322 53.221 200.778C52.7823 201.226 52.5629 201.848 52.5629 202.645V206.352H51.6092V199.287H52.5226V200.59C52.7823 200.16 53.1404 199.83 53.5971 199.596C54.0626 199.355 54.5999 199.234 55.2088 199.234ZM63.8143 205.573C64.253 205.573 64.6559 205.498 65.0231 205.345C65.3992 205.184 65.717 204.95 65.9767 204.646L66.514 205.264C66.2005 205.64 65.811 205.927 65.3455 206.124C64.8799 206.32 64.365 206.419 63.8009 206.419C63.0756 206.419 62.4309 206.267 61.8668 205.963C61.3027 205.649 60.8639 205.219 60.5505 204.673C60.2371 204.128 60.0804 203.51 60.0804 202.82C60.0804 202.13 60.2282 201.512 60.5237 200.966C60.8281 200.421 61.2444 199.994 61.7728 199.69C62.3011 199.386 62.901 199.234 63.5725 199.234C64.1993 199.234 64.7634 199.377 65.2649 199.663C65.7752 199.95 66.1782 200.348 66.4737 200.859C66.7781 201.369 66.9393 201.952 66.9572 202.605L61.1549 203.733C61.334 204.306 61.6564 204.759 62.122 205.09C62.5966 205.412 63.1607 205.573 63.8143 205.573ZM63.5725 200.053C63.0801 200.053 62.6369 200.169 62.2428 200.402C61.8579 200.626 61.5533 200.944 61.3295 201.356C61.1146 201.759 61.0072 202.224 61.0072 202.753C61.0072 202.887 61.0117 202.986 61.0206 203.048L66.0036 202.081C65.8961 201.49 65.623 201.007 65.1843 200.631C64.7456 200.246 64.2083 200.053 63.5725 200.053ZM76.1876 199.234C76.8503 199.234 77.4501 199.386 77.9874 199.69C78.5246 199.986 78.9455 200.407 79.2499 200.953C79.5543 201.499 79.7066 202.121 79.7066 202.82C79.7066 203.527 79.5543 204.154 79.2499 204.7C78.9455 205.246 78.5246 205.672 77.9874 205.976C77.4591 206.272 76.8592 206.419 76.1876 206.419C75.6146 206.419 75.0952 206.303 74.6296 206.07C74.1729 205.828 73.7969 205.479 73.5014 205.023V208.958H72.5478V199.287H73.4611V200.684C73.7477 200.219 74.1237 199.86 74.5893 199.61C75.0639 199.359 75.5966 199.234 76.1876 199.234ZM76.1205 205.573C76.6129 205.573 77.0606 205.461 77.4636 205.237C77.8665 205.004 78.18 204.678 78.4038 204.257C78.6366 203.836 78.753 203.357 78.753 202.82C78.753 202.283 78.6366 201.808 78.4038 201.396C78.18 200.975 77.8665 200.649 77.4636 200.416C77.0606 200.182 76.6129 200.066 76.1205 200.066C75.619 200.066 75.1668 200.182 74.7639 200.416C74.3699 200.649 74.0566 200.975 73.8237 201.396C73.5999 201.808 73.4879 202.283 73.4879 202.82C73.4879 203.357 73.5999 203.836 73.8237 204.257C74.0566 204.678 74.3699 205.004 74.7639 205.237C75.1668 205.461 75.619 205.573 76.1205 205.573ZM88.1648 199.287V206.352H87.2514V204.955C86.9648 205.43 86.5842 205.793 86.1097 206.043C85.644 206.294 85.1158 206.419 84.5248 206.419C83.8622 206.419 83.2623 206.267 82.7251 205.963C82.1878 205.659 81.7669 205.233 81.4625 204.687C81.158 204.141 81.0059 203.518 81.0059 202.82C81.0059 202.121 81.158 201.499 81.4625 200.953C81.7669 200.407 82.1878 199.986 82.7251 199.69C83.2623 199.386 83.8622 199.234 84.5248 199.234C85.0979 199.234 85.6128 199.355 86.0694 199.596C86.535 199.83 86.9156 200.174 87.2111 200.631V199.287H88.1648ZM84.6055 205.573C85.0979 205.573 85.5411 205.461 85.9351 205.237C86.3381 205.004 86.6514 204.678 86.8753 204.257C87.108 203.836 87.2245 203.357 87.2245 202.82C87.2245 202.283 87.108 201.804 86.8753 201.383C86.6514 200.961 86.3381 200.639 85.9351 200.416C85.5411 200.182 85.0979 200.066 84.6055 200.066C84.104 200.066 83.6518 200.182 83.2489 200.416C82.8549 200.639 82.5414 200.961 82.3087 201.383C82.0848 201.804 81.9729 202.283 81.9729 202.82C81.9729 203.357 82.0848 203.836 82.3087 204.257C82.5414 204.678 82.8549 205.004 83.2489 205.237C83.6518 205.461 84.104 205.573 84.6055 205.573ZM91.801 200.671C92.0245 200.196 92.3566 199.838 92.7949 199.596C93.243 199.355 93.7937 199.234 94.447 199.234V200.16L94.2186 200.147C93.475 200.147 92.8939 200.375 92.4726 200.832C92.0513 201.289 91.8413 201.928 91.8413 202.753V206.352H90.8877V199.287H91.801V200.671ZM99.1967 205.573C99.6363 205.573 100.039 205.498 100.406 205.345C100.782 205.184 101.1 204.95 101.359 204.646L101.896 205.264C101.584 205.64 101.194 205.927 100.728 206.124C100.263 206.32 99.7474 206.419 99.1833 206.419C98.458 206.419 97.8133 206.267 97.2492 205.963C96.6851 205.649 96.2468 205.219 95.933 204.673C95.6204 204.128 95.4629 203.51 95.4629 202.82C95.4629 202.13 95.6106 201.512 95.9061 200.966C96.2114 200.421 96.6277 199.994 97.1552 199.69C97.6839 199.386 98.2834 199.234 98.955 199.234C99.5826 199.234 100.147 199.377 100.647 199.663C101.158 199.95 101.561 200.348 101.856 200.859C102.161 201.369 102.323 201.952 102.34 202.605L96.5374 203.733C96.7169 204.306 97.0392 204.759 97.5044 205.09C97.9794 205.412 98.5435 205.573 99.1967 205.573ZM98.955 200.053C98.4629 200.053 98.0197 200.169 97.6253 200.402C97.2407 200.626 96.9366 200.944 96.712 201.356C96.4971 201.759 96.3896 202.224 96.3896 202.753C96.3896 202.887 96.3945 202.986 96.4031 203.048L101.386 202.081C101.279 201.49 101.006 201.007 100.567 200.631C100.128 200.246 99.5911 200.053 98.955 200.053ZM107.948 199.234C108.834 199.234 109.538 199.494 110.056 200.013C110.585 200.523 110.849 201.27 110.849 202.256V206.352H109.895V202.35C109.895 201.616 109.712 201.055 109.345 200.671C108.977 200.286 108.453 200.093 107.773 200.093C107.012 200.093 106.408 200.322 105.96 200.778C105.522 201.226 105.302 201.848 105.302 202.645V206.352H104.348V199.287H105.262V200.59C105.522 200.16 105.879 199.83 106.336 199.596C106.801 199.355 107.339 199.234 107.948 199.234ZM116.983 205.922C116.805 206.084 116.585 206.209 116.325 206.298C116.066 206.379 115.793 206.419 115.506 206.419C114.844 206.419 114.334 206.24 113.975 205.882C113.617 205.524 113.437 205.018 113.437 204.364V197.743H114.391V199.287H116.527V200.093H114.391V204.311C114.391 204.732 114.495 205.054 114.7 205.278C114.906 205.493 115.207 205.6 115.6 205.6C116.03 205.6 116.379 205.479 116.648 205.237L116.983 205.922ZM118.779 199.287H119.733V206.352H118.779V199.287ZM119.263 197.743C119.066 197.743 118.9 197.676 118.766 197.541C118.632 197.407 118.565 197.246 118.565 197.058C118.565 196.878 118.632 196.722 118.766 196.588C118.9 196.453 119.066 196.386 119.263 196.386C119.46 196.386 119.626 196.453 119.76 196.588C119.894 196.714 119.961 196.865 119.961 197.044C119.961 197.241 119.894 197.407 119.76 197.541C119.626 197.676 119.46 197.743 119.263 197.743ZM126.053 199.234C126.939 199.234 127.643 199.494 128.162 200.013C128.69 200.523 128.954 201.27 128.954 202.256V206.352H128.001V202.35C128.001 201.616 127.817 201.055 127.45 200.671C127.082 200.286 126.559 200.093 125.878 200.093C125.118 200.093 124.513 200.322 124.065 200.778C123.627 201.226 123.407 201.848 123.407 202.645V206.352H122.453V199.287H123.367V200.59C123.627 200.16 123.985 199.83 124.441 199.596C124.907 199.355 125.444 199.234 126.053 199.234ZM138.178 199.287V205.493C138.178 206.693 137.882 207.579 137.291 208.152C136.709 208.734 135.827 209.025 134.645 209.025C133.992 209.025 133.369 208.926 132.778 208.73C132.196 208.542 131.722 208.278 131.355 207.937L131.838 207.212C132.179 207.516 132.59 207.754 133.074 207.924C133.566 208.093 134.081 208.179 134.618 208.179C135.513 208.179 136.172 207.969 136.593 207.548C137.014 207.136 137.224 206.491 137.224 205.614V204.714C136.929 205.162 136.539 205.501 136.056 205.734C135.581 205.968 135.053 206.084 134.471 206.084C133.808 206.084 133.203 205.941 132.658 205.654C132.12 205.358 131.695 204.95 131.382 204.432C131.078 203.903 130.925 203.308 130.925 202.645C130.925 201.982 131.078 201.391 131.382 200.872C131.695 200.353 132.12 199.95 132.658 199.663C133.195 199.377 133.799 199.234 134.471 199.234C135.07 199.234 135.612 199.355 136.096 199.596C136.579 199.838 136.969 200.187 137.264 200.644V199.287H138.178ZM134.565 205.237C135.075 205.237 135.537 205.13 135.948 204.915C136.36 204.692 136.678 204.383 136.902 203.988C137.135 203.594 137.251 203.147 137.251 202.645C137.251 202.143 137.135 201.7 136.902 201.316C136.678 200.921 136.36 200.617 135.948 200.402C135.545 200.179 135.084 200.066 134.565 200.066C134.054 200.066 133.593 200.174 133.181 200.389C132.778 200.604 132.461 200.908 132.228 201.302C132.004 201.696 131.892 202.143 131.892 202.645C131.892 203.147 132.004 203.594 132.228 203.988C132.461 204.383 132.778 204.692 133.181 204.915C133.593 205.13 134.054 205.237 134.565 205.237ZM150.941 199.287V206.352H150.028V204.955C149.741 205.43 149.361 205.793 148.886 206.043C148.421 206.294 147.892 206.419 147.301 206.419C146.638 206.419 146.039 206.267 145.501 205.963C144.964 205.659 144.543 205.233 144.239 204.687C143.935 204.141 143.782 203.518 143.782 202.82C143.782 202.121 143.935 201.499 144.239 200.953C144.543 200.407 144.964 199.986 145.501 199.69C146.039 199.386 146.638 199.234 147.301 199.234C147.874 199.234 148.389 199.355 148.846 199.596C149.311 199.83 149.692 200.174 149.987 200.631V199.287H150.941ZM147.382 205.573C147.874 205.573 148.317 205.461 148.712 205.237C149.114 205.004 149.428 204.678 149.652 204.257C149.885 203.836 150.001 203.357 150.001 202.82C150.001 202.283 149.885 201.804 149.652 201.383C149.428 200.961 149.114 200.639 148.712 200.416C148.317 200.182 147.874 200.066 147.382 200.066C146.88 200.066 146.428 200.182 146.025 200.416C145.631 200.639 145.318 200.961 145.085 201.383C144.862 201.804 144.749 202.283 144.749 202.82C144.749 203.357 144.862 203.836 145.085 204.257C145.318 204.678 145.631 205.004 146.025 205.237C146.428 205.461 146.88 205.573 147.382 205.573ZM157.304 199.234C157.967 199.234 158.566 199.386 159.104 199.69C159.641 199.986 160.062 200.407 160.366 200.953C160.67 201.499 160.823 202.121 160.823 202.82C160.823 203.527 160.67 204.154 160.366 204.7C160.062 205.246 159.641 205.672 159.104 205.976C158.575 206.272 157.975 206.419 157.304 206.419C156.731 206.419 156.211 206.303 155.746 206.07C155.289 205.828 154.913 205.479 154.618 205.023V208.958H153.664V199.287H154.577V200.684C154.864 200.219 155.24 199.86 155.705 199.61C156.18 199.359 156.713 199.234 157.304 199.234ZM157.237 205.573C157.729 205.573 158.177 205.461 158.58 205.237C158.983 205.004 159.297 204.678 159.52 204.257C159.753 203.836 159.869 203.357 159.869 202.82C159.869 202.283 159.753 201.808 159.52 201.396C159.297 200.975 158.983 200.649 158.58 200.416C158.177 200.182 157.729 200.066 157.237 200.066C156.735 200.066 156.283 200.182 155.88 200.416C155.486 200.649 155.173 200.975 154.94 201.396C154.716 201.808 154.604 202.283 154.604 202.82C154.604 203.357 154.716 203.836 154.94 204.257C155.173 204.678 155.486 205.004 155.88 205.237C156.283 205.461 156.735 205.573 157.237 205.573ZM166.474 199.234C167.137 199.234 167.736 199.386 168.273 199.69C168.811 199.986 169.232 200.407 169.536 200.953C169.84 201.499 169.993 202.121 169.993 202.82C169.993 203.527 169.84 204.154 169.536 204.7C169.232 205.246 168.811 205.672 168.273 205.976C167.745 206.272 167.145 206.419 166.474 206.419C165.901 206.419 165.381 206.303 164.916 206.07C164.459 205.828 164.083 205.479 163.787 205.023V208.958H162.834V199.287H163.747V200.684C164.034 200.219 164.41 199.86 164.875 199.61C165.35 199.359 165.883 199.234 166.474 199.234ZM166.407 205.573C166.899 205.573 167.347 205.461 167.75 205.237C168.153 205.004 168.466 204.678 168.69 204.257C168.923 203.836 169.039 203.357 169.039 202.82C169.039 202.283 168.923 201.808 168.69 201.396C168.466 200.975 168.153 200.649 167.75 200.416C167.347 200.182 166.899 200.066 166.407 200.066C165.905 200.066 165.453 200.182 165.05 200.416C164.656 200.649 164.343 200.975 164.11 201.396C163.886 201.808 163.774 202.283 163.774 202.82C163.774 203.357 163.886 203.836 164.11 204.257C164.343 204.678 164.656 205.004 165.05 205.237C165.453 205.461 165.905 205.573 166.407 205.573ZM173.897 206.419C173.325 206.419 172.774 206.339 172.245 206.178C171.726 206.008 171.319 205.797 171.023 205.546L171.453 204.794C171.748 205.027 172.12 205.219 172.568 205.372C173.016 205.515 173.481 205.587 173.965 205.587C174.609 205.587 175.084 205.488 175.388 205.291C175.702 205.085 175.858 204.799 175.858 204.432C175.858 204.171 175.773 203.97 175.603 203.827C175.434 203.675 175.219 203.563 174.959 203.491C174.698 203.411 174.354 203.335 173.924 203.263C173.352 203.156 172.89 203.048 172.541 202.941C172.192 202.825 171.891 202.632 171.641 202.363C171.399 202.095 171.278 201.723 171.278 201.248C171.278 200.657 171.525 200.174 172.017 199.798C172.509 199.422 173.194 199.234 174.072 199.234C174.529 199.234 174.985 199.296 175.442 199.422C175.899 199.538 176.275 199.695 176.57 199.892L176.154 200.657C175.571 200.254 174.878 200.053 174.072 200.053C173.463 200.053 173.002 200.16 172.689 200.375C172.385 200.59 172.232 200.872 172.232 201.222C172.232 201.49 172.317 201.705 172.487 201.866C172.667 202.027 172.885 202.148 173.145 202.229C173.405 202.301 173.763 202.377 174.22 202.457C174.784 202.565 175.236 202.672 175.576 202.78C175.917 202.887 176.208 203.07 176.449 203.33C176.691 203.59 176.812 203.948 176.812 204.405C176.812 205.023 176.552 205.515 176.033 205.882C175.523 206.24 174.811 206.419 173.897 206.419Z" fill="white"/>
</g>
<path fill-rule="evenodd" clip-rule="evenodd" d="M104.947 66.3262C87.9716 77.6254 72.4609 71.9973 61.4097 63.1592C41.201 46.9902 35.9496 56.5676 38.9163 81.5555C40.2518 92.7976 44.6159 107.86 56.125 125.589C73.868 152.918 78.1844 120.06 78.1654 103.324C83.121 109.291 92.2736 177.796 59.211 148.326C36.7413 128.307 26.6059 101.306 24.8554 78.918C24.2307 70.9289 24.2164 59.8396 27.412 51.1827C29.9732 44.2381 34.6046 38.7961 42.6509 37.9041C66.0744 35.3094 66.9616 72.4694 104.947 66.3262Z" fill="white"/>
<path fill-rule="evenodd" clip-rule="evenodd" d="M72.1797 44.1999C98.055 62.9253 112.53 42.2062 132.386 40.5273C179.791 36.516 151.097 138.352 115.417 160.221C112.359 162.09 109.625 162.834 107.789 161.494C102.009 157.273 111.581 97.7674 83.8365 91.1423C108.958 87.5126 117.657 120.018 119.781 138.853C132.916 127.029 157.903 68.5297 133.169 58.2129C115.507 50.844 90.0757 78.3597 72.1797 44.1999Z" fill="white"/>
<path d="M89.8609 42.7357C96.2672 42.7357 101.461 36.7223 101.461 29.3045C101.461 21.8866 96.2672 15.8732 89.8609 15.8732C83.4546 15.8732 78.2612 21.8866 78.2612 29.3045C78.2612 36.7223 83.4546 42.7357 89.8609 42.7357Z" fill="white"/>
<path d="M130.757 37.8516C139.523 37.8516 146.63 29.3782 146.63 18.9258C146.63 8.47337 139.523 0 130.757 0C121.99 0 114.883 8.47337 114.883 18.9258C114.883 29.3782 121.99 37.8516 130.757 37.8516Z" fill="white"/>
<path d="M58.1057 37.8516C65.8607 37.8516 72.1474 30.1982 72.1474 20.7573C72.1474 11.3164 65.8607 3.66306 58.1057 3.66306C50.3507 3.66306 44.064 11.3164 44.064 20.7573C44.064 30.1982 50.3507 37.8516 58.1057 37.8516Z" fill="white"/>
<defs>
<filter id="filter0_d" x="39.2922" y="168.189" width="100.221" height="23.8024" filterUnits="userSpaceOnUse" color-interpolation-filters="sRGB">
<feFlood flood-opacity="0" result="BackgroundImageFix"/>
<feColorMatrix in="SourceAlpha" type="matrix" values="0 0 0 0 0 0 0 0 0 0 0 0 0 0 0 0 0 0 127 0" result="hardAlpha"/>
<feOffset dy="1"/>
<feGaussianBlur stdDeviation="2"/>
<feComposite in2="hardAlpha" operator="out"/>
<feColorMatrix type="matrix" values="0 0 0 0 0 0 0 0 0 0 0 0 0 0 0 0 0 0 0.25 0"/>
<feBlend mode="normal" in2="BackgroundImageFix" result="effect1_dropShadow"/>
<feBlend mode="normal" in="SourceGraphic" in2="effect1_dropShadow" result="shape"/>
</filter>
<filter id="filter1_d" x="0" y="193.386" width="180.812" height="20.6388" filterUnits="userSpaceOnUse" color-interpolation-filters="sRGB">
<feFlood flood-opacity="0" result="BackgroundImageFix"/>
<feColorMatrix in="SourceAlpha" type="matrix" values="0 0 0 0 0 0 0 0 0 0 0 0 0 0 0 0 0 0 127 0" result="hardAlpha"/>
<feOffset dy="1"/>
<feGaussianBlur stdDeviation="2"/>
<feComposite in2="hardAlpha" operator="out"/>
<feColorMatrix type="matrix" values="0 0 0 0 0 0 0 0 0 0 0 0 0 0 0 0 0 0 0.25 0"/>
<feBlend mode="normal" in2="BackgroundImageFix" result="effect1_dropShadow"/>
<feBlend mode="normal" in="SourceGraphic" in2="effect1_dropShadow" result="shape"/>
</filter>
</defs>
</svg>
